# xmcd CD database file generated by Grip 2.96
# 
# Track frame offsets:
#       150
#       11525
#       26072
#       40050
#       57337
#       81250
#       95525
#       118697
#       133112
#       150415
#       166387
#       178500
# 
# Disc length: 2608 seconds
# 
# Revision: 0
# Processed by: cddbd v1.4PL0 Copyright (c) Steve Scherf et al.
# Submitted via: Grip 2.96
# 
DISCID=930a2e0c
DTITLE=Hubert Sumlin, Willie Dixon, Sunnyland Smith - Blues Anytimes!
DYEAR=1900
DGENRE=
TTITLE0=It's You, Baby
TTITLE1=Love You, Woman
TTITLE2=Everytime I Get To Drinking
TTITLE3=When I Feel Better
TTITLE4=Blues Anytime
TTITLE5=I Love
TTITLE6=Levee Camp Moan
TTITLE7=My Babe
TTITLE8=Hubert's Blues
TTITLE9=We Gonna Jump
TTITLE10=Big Legged Woman
TTITLE11=Too Late For Me To Pray
EXTD=
EXTT0=
EXTT1=
EXTT2=
EXTT3=
EXTT4=
EXTT5=
EXTT6=
EXTT7=
EXTT8=
EXTT9=
EXTT10=
EXTT11=
PLAYORDER=
